<mxfile host="app.diagrams.net" modified="2023-06-09T22:47:45.779Z" agent="Mozilla/5.0 (Windows NT 10.0; Win64; x64) AppleWebKit/537.36 (KHTML, like Gecko) Chrome/114.0.0.0 Safari/537.36" etag="0YPWZyU6-JkrVMzTlret" version="21.3.8" type="device">
  <diagram name="Page-1" id="2YBvvXClWsGukQMizWep">
    <mxGraphModel dx="1687" dy="899" grid="1" gridSize="10" guides="1" tooltips="1" connect="1" arrows="1" fold="1" page="1" pageScale="1" pageWidth="850" pageHeight="1100" math="0" shadow="0">
      <root>
        <mxCell id="0" />
        <mxCell id="1" parent="0" />
        <mxCell id="qmlk9hXNrN-jaDAkJxet-14" value="" style="rounded=0;whiteSpace=wrap;html=1;" vertex="1" parent="1">
          <mxGeometry x="399" y="712" width="190" height="80" as="geometry" />
        </mxCell>
        <mxCell id="-Sxr7ymy98c5-R17WDKF-34" style="edgeStyle=orthogonalEdgeStyle;rounded=0;orthogonalLoop=1;jettySize=auto;html=1;entryX=0;entryY=0.5;entryDx=0;entryDy=0;" parent="1" source="-Sxr7ymy98c5-R17WDKF-29" target="-Sxr7ymy98c5-R17WDKF-30" edge="1">
          <mxGeometry relative="1" as="geometry">
            <Array as="points">
              <mxPoint x="130" y="142" />
              <mxPoint x="130" y="50" />
            </Array>
          </mxGeometry>
        </mxCell>
        <mxCell id="-Sxr7ymy98c5-R17WDKF-35" style="edgeStyle=orthogonalEdgeStyle;rounded=0;orthogonalLoop=1;jettySize=auto;html=1;entryX=0;entryY=0.5;entryDx=0;entryDy=0;" parent="1" source="-Sxr7ymy98c5-R17WDKF-29" target="-Sxr7ymy98c5-R17WDKF-31" edge="1">
          <mxGeometry relative="1" as="geometry">
            <Array as="points">
              <mxPoint x="130" y="142" />
              <mxPoint x="130" y="200" />
            </Array>
          </mxGeometry>
        </mxCell>
        <mxCell id="qmlk9hXNrN-jaDAkJxet-2" style="edgeStyle=orthogonalEdgeStyle;rounded=0;orthogonalLoop=1;jettySize=auto;html=1;entryX=0;entryY=0.5;entryDx=0;entryDy=0;" edge="1" parent="1" source="-Sxr7ymy98c5-R17WDKF-29" target="-Sxr7ymy98c5-R17WDKF-49">
          <mxGeometry relative="1" as="geometry" />
        </mxCell>
        <mxCell id="-Sxr7ymy98c5-R17WDKF-29" value="" style="outlineConnect=0;dashed=0;verticalLabelPosition=bottom;verticalAlign=top;align=center;html=1;shape=mxgraph.aws3.users;fillColor=#D2D3D3;gradientColor=none;" parent="1" vertex="1">
          <mxGeometry x="10" y="110" width="66" height="63" as="geometry" />
        </mxCell>
        <mxCell id="-Sxr7ymy98c5-R17WDKF-30" value="Mint NFT" style="rounded=0;whiteSpace=wrap;html=1;" parent="1" vertex="1">
          <mxGeometry x="190" y="20" width="120" height="60" as="geometry" />
        </mxCell>
        <mxCell id="-Sxr7ymy98c5-R17WDKF-46" style="edgeStyle=orthogonalEdgeStyle;rounded=0;orthogonalLoop=1;jettySize=auto;html=1;" parent="1" source="-Sxr7ymy98c5-R17WDKF-31" target="-Sxr7ymy98c5-R17WDKF-45" edge="1">
          <mxGeometry relative="1" as="geometry" />
        </mxCell>
        <mxCell id="-Sxr7ymy98c5-R17WDKF-31" value="Upgrade NFT" style="rounded=0;whiteSpace=wrap;html=1;" parent="1" vertex="1">
          <mxGeometry x="190" y="170" width="120" height="60" as="geometry" />
        </mxCell>
        <mxCell id="-Sxr7ymy98c5-R17WDKF-37" value="80% Prize" style="rounded=1;whiteSpace=wrap;html=1;" parent="1" vertex="1">
          <mxGeometry x="550" y="70" width="120" height="60" as="geometry" />
        </mxCell>
        <mxCell id="-Sxr7ymy98c5-R17WDKF-39" value="5% Team" style="rounded=1;whiteSpace=wrap;html=1;" parent="1" vertex="1">
          <mxGeometry x="550" y="120" width="120" height="60" as="geometry" />
        </mxCell>
        <mxCell id="-Sxr7ymy98c5-R17WDKF-40" value="5% AWS Projects" style="rounded=1;whiteSpace=wrap;html=1;" parent="1" vertex="1">
          <mxGeometry x="550" y="170" width="120" height="60" as="geometry" />
        </mxCell>
        <mxCell id="-Sxr7ymy98c5-R17WDKF-41" value="10% Infrastructure" style="rounded=1;whiteSpace=wrap;html=1;" parent="1" vertex="1">
          <mxGeometry x="550" y="220" width="120" height="60" as="geometry" />
        </mxCell>
        <mxCell id="-Sxr7ymy98c5-R17WDKF-47" style="edgeStyle=orthogonalEdgeStyle;rounded=0;orthogonalLoop=1;jettySize=auto;html=1;entryX=0.5;entryY=1;entryDx=0;entryDy=0;" parent="1" source="-Sxr7ymy98c5-R17WDKF-45" target="-Sxr7ymy98c5-R17WDKF-31" edge="1">
          <mxGeometry relative="1" as="geometry" />
        </mxCell>
        <mxCell id="-Sxr7ymy98c5-R17WDKF-45" value="" style="shape=image;verticalLabelPosition=bottom;labelBackgroundColor=default;verticalAlign=top;aspect=fixed;imageAspect=0;image=data:image/png,iVBORw0KGgoAAAANSUhEUgAAANcAAABMCAYAAAD+3CI1AAAWnklEQVR4nO2de3wU1dnHf3NmZmd3k83mfiVc5BIEAS3SCgrUfoCiAiooghS8ULGovBSl+FIKrdZSsaCmVkGoYgVFKFDBliJitYjSimgFL42IJIQkbO67m+zu7M6cef+YzJCQ22azmwTf8/2LsLM7z8zub855Luc5XL1f1cBgMKIO6W4DGIxvK0xcDEaMYOJiMGIEExeDESN6jLgIAawSgShw3W0KgxEVul1chAA2K8GZUhnLfvcNdr5ZAVHgQLrdMgajc3DdGYoXBQ5VbgWbdpTh1YM1EAmHgKJhSK6En9+TgysujYdKNVDaXRYyGJHTLeIypn4736xA/jYXfLIGSeTAN4xWiqqh2kcxc5wT987KQp9sK4IhykTGuKjoUnERAvCEwydf1mH1phJ8USwjOa71+Z9P1k27/5ZUzLohA3YrQUhhOW/GxUGXiIsQwCISFJUG8PxrZdhxyI1kO4HAtx+8UClQJ1NkJQpYekcWJo9NZqMY46Ig5uISBQ6+AMVrf3Nh3WsVsAoc7FLHI4IqBdx+ilEDrXh4fi9cNiiOiYzRo4mZuIzR6uAHNXj8xVKU1SqIl4jpV0WK4Y/dNTkZ98zMQnqyyETG6JFEXVyGqL4u8uOR587g6MkAnLbOi+pCAiE9irhsbgZunJAGq4Vj/hijRxE1cRmiKq8OYdOOMmw5UIMEKxeWXxUpxlSxf6YFy+dn45qRTjaKMXoMURGXKOijxu4DFVj7iguUIiK/KlJUClTVqxg/1I4ld+Qwf4zRI+iUuAgBJAvBkU88eGJzabuh9VjD/DFGTyIicTUOrT/5Ugn+9qE37NB6V+CTNRACLJ2TgemT0syRlcHoSjosLlHgEAhqePWNc3h6RwUkgYNV7LyojHxWND/P7acYkivhwXlZGHulE3KQjWKMriNscRmFtIeOurFq/dlmJUuR0jgosWh2Bj742INd77kRZ4lOMMSYKk68Ih4P3ZmDAX1sbKrI6BLCEpfNSnCyUA+tHynwI93BR+XkPllDXZBixdwMzLw+A1YLB57n8NlX9VjzwlkcKfAjJY6PShg/ENIgKxoWTEvF3TMyWSkVI+a0Ky5R4PDIH4rw6ju1UfOrFFWDJ6Bh5ngnHpib0yzw0DgB/dTWczh1LhiVXJlKATmkX+7Wx/pjUD8bG8EYMSMscfW98VNkOzs/ghgh85EDbFi5oP0SJsO/27HPhTWvlMNuiY4/Vl1P8fh9OZh6bQobvRgxIyy5SAI6JSzDr3LYCJ5alIPta/MwqJ8NAblt3yekaBAF4K4ZWTj0xyGYMjoB1fUUSidTczwBeI6JKlzYwtXIEGJ9gkBIgydAsWh6munrBOTw52KUAgGZItHB49HFfTHzuuj7Y9HGWFoDAHzDNFpteCCEu/jTKp2/MFXVum2EtUp61U16shgzOww3wKCl2YxVIgiGKCwiiVlAKhw7OkLMxGX4VdNGO7B0fq7pV0X65RgiG9TPhi1r8qLuj0UDQ1RVbgUffOxGRXUQxWVBAEBulgVpyRZcMSQeWWkWAGjzi5u/4isAQFDR8IPvJmDeTZldLjBCgMc3FuPZvVXIdvJY92BvjL48Iap2EAKUVQTxi/wiWAQOdbKGe6anY9woZxMfPP/lEjyzuwLpDh6/f7gvhufFRVVghAC1XhWLVp9EvMQhqGi4d2YmvjvcEfF5YiKucq+KvGwJz93XC1de5kAwRDs0WrWFIbJrv5eI0Vc4sWOfC2u3lUMkkS1liRZGRHXdSyU4dKIeKgWsjXqBUAoEFA0K1TB+qB0LZ2dh1DBHs9wbIfqxJ04HAACegIbL8+LA812bCCcE+PjzOlNYmqZh+TPF2PfspZAsXNRHjo9PBRBn4VDto5jtU8ETDpTqxQAfHvdi7Y4KZDt5KKqGJWuLsH/9EIhC2w+ojuIPqDj2tR/JdqKvhK8NmnZEQtSf93aJYO0DvbD3mcEYnhfXrl8VKY39sXc2DsGtP0jstC8WCYTogZfH1p/B5MUFOFbgQ7xEkBxHIIkcBAIIBJBEDslxBOkOHidOB3Dz/57CY+vPgCctN+MReA4cx8Fu6Z4HBk84nKsMmv42x3GorlNR7Q7F5HySoF+vdEH3L55wKHHJiLPoOVWB51BYqaDer8bMDoHnIJDO3/eoisvtp/jVwl64eWIqQkrsG8s09sdW/KQ38nKlLhWYIYqHnjiNLQdqkO7gIfAc5JCGcq8KTdOQlythZJ4dAFBcoyIQ0iDwHHKTeGw5UIOV+YWmf9aTUKmGMd9xIt3Bo7qeotSt4obvOZCVZunS9IVKNVx1eQIUqsHtpyj3qpgyKh6JDr7Hp1GiOi1UGy5WDnbtVRsi62osIsGq/ELsP+pFchwxS7hmjHVi3k0ZGNDHZh7LcUBhid7mYM8HHjht+ui245Ablw0sx+1TM7rlGlqDUiDRwePNDUPw9pEaxNt5TBiThGCo67/brDQL3n5uMF4/WIU+2RImj03uUhsiJebRwm8rosDh8DE3Nr9Vi9wk3szhvbSyn7mu7EKxZKVZsPrBfhg9ogL3PVWC3CQe6Q4ea19xYeoPUiGFOQU0/LJICff9lAKShcPUa1OgUq3bxG8I7IE52QDCj7h2Nz0gxnbxQYju8/32hVJkJei30O2n2LCsD64Z6WzVzzRG2GkT0rB0ZprZ3coToNi5v7zd6aEocA0V/vrfVomEnYMSBc4M78tBzXx/ex2OzZRCK76hYVPjRq5G92Tj72h0Ug733rRkh0G0OjobfvaF57sQNnJFyEefeVFQKiPdwSMQ0vDDK+MxYUxSWE93OUgxe0o6Nv+1CsU1KsYMtiE3y9rq8YLAgeOA7fvK8ffDtaj2UkgihwG9LJg+MRVXXZ7Q6nmN9MA7/67FgfdrUOQKIRTSIIoc+mdbMG6Us9WOWioF9rxZYeboLsm14TtD483jRIHDvncr4fXp/5GeYsHEq5Nw9IQXuw9U4lRpEKGQhtwMEdeNTYq4cxcheo/Ltux4450q+BqCHL2zrRh7pRMnCurx8h4Xilx6ECYzWcB1Y5MwcUxSRKOfIaIPj3ub3O94O9/EHgMmrgiwiASHj3mQYNXvtidAMXdaetj+CKVAilPA2p/mYvjgeGSkiFAUPUHb0lOwzqfiR8sKcPRkAAlWPaqmaRoKXUFs+6cH909Lwc/m92oWqjdySEvWFOJ4UQAJVgKh0eefPCtjxyE3hu8sx4Zf9m8SJDBG5027K3C2WkF9UMNPpzcVMs9z2HGgGkcK/ACA269NRJ1PxdwnzmBgsmCeq9AVxN8+9GL0Xyvw3KoBHQ7lUwrkb3Ohup62aIcgcHj5jUp8USxDoRp+fH0KSlwylj5XirT489d88qxs2rHhVwM7FMo3EszLfvcNtv3TgzgLh/qghr6pArauHtDye8K/RIYBxwHv/acOIs9BpXr4dnheXIc+I6RoGDfKiUQHD3+g9eS6VeSw51AtCopl2C0cPAE9ama8lpvE44/7qvDWBzVNpjy6OID7HjuNQlcQ6Q3CKfPoP9AyT8No4+DxTVkQi1Z/06Q6wUCyEDhtBCl2AqGFKZVF4JBsJ0iJ43GswI/fbi7DwGQBsqIXEShUtzPdwePjUwH8fksJJEvHf3Z2qW07RJFDglU/z3v/qcO6reeQFk8gKxrqg03tOHoygGe2lLR4vS1hCGvdi2ex+30PcpN4JFj1e7/rybxWI6hMXBFS41XMf/dNt0CykA5PMygN78kp8ByCCjBldAL+sLQ3nl6Si2H9rAg0VPgn2wk27iyH2ijZyRMOO/a5cOpcEFaRg9tPsfi2NJzcNRxf7BqBL7YPw5xJyfDJGuwSh2Nf+3H4mDviOkKe6PfE7acYOzwOjy/Mxh+W9saEkfHmw8BpI9i8vxqFJYGY1ivWePWR1rAj/8HeGDci3vRxnTaC1w7WoKg0PDsMYa3fW4l0h57ITrDzeD1/cJspATYtjJDiGhW5SfqNzkziocUwveb2U6y6OwuzbkiH0jDCTRyThAceO4VjBT4IPIfjRQHUelXzyxYEDi++UdXw1FYxc5wTd9+SBTlI4Q9QSBYO98/Jxj8+8qLSrSDBSvDvT71mQCYSfLKGhTelYvG8HNM/mnh1EpKfL8ZrB2tgl/Tk7MlCP3plSBFXPoRjx4JpTe2YMCYJv9lwBrverYVV1Df8aM8O0cJDEDhs3F7aRFgKBV54tD9SnEKbVTNs5IoCdbIGLkZ5YJXqI+OsG9LN6aPxhc6fkYFq33khlFcGzX/LQYq3nh+Cvz85ECvmZmD6pFRTmKLAwSISWCXS8GDQIBDgzDm5U3amJvD48a1ZZg1pSNEagjdp5nFWgcPps/6IzxMOdonDwtlN7QiGKO6ZmWWOMlaBQ3FZoM3PEXgOL+4sw5pXy01hSRaCvzw5CL0ypHbL0djIFSF9UwUEG6otil3B9t/QAo3rDltD0zQMzJWajYwq1ZDoaPr1BRol7ynVP//S/nYMa/AHXVUhlFcGcdYlo+C0H/897ccnpwKwilynK1sMO+NszVc92Kw8HHZijiKxRFE1jMyzgyfNazFtDekBo9ihrWtOsHLY9VYVjnzuQ7pDz2MKPIetqweEJSyAiSsiNA24rJ8Vxwp8ADiUe1UUlgQ6VBpkVGHbJAJHHN9qiFrpZLK0yq1g21/Lsf2tahTXqJAEQCAcrA1Bge4sdu4OKAUQRpcKgedwrMBn3h+ewPQd1TCns2xaGAGqquGHVyfCE9BvcryF4B9HasKOPgF6FO6hNd/g5sX/xW82nMHxgvqoOvlGGP72ZV9h495KqBRIsesnUKgexBh/eRySHOz52hpCQzTYCBzFWTgsWVNozgrag4krAoyiVrtFv/l2icOm1yvDjj6JAocjn3hw9GQAXj/FlgM12Pt2VatVCLkZlg7baBEJfpFfhOo6FfESQUjVsPzOTOzPz8Nn24fjyNZh+P2K/hjar2uLnS8mFFVDTqqIGd9PhE/WXYCCEhnrNp8NK53AxBUBlALpySLuuD4FdQ3+haJqWLKmECEFrZbEGOU4VW4FD64rMhd5KlTDzOvSwp5utAchQFFpAB83+FNySMOiW9Mw64Z09M6WQAjgD1DIQYqyytgsIbnYUak+JX/q4b5Y8ZPeyEkVoaiamU547yN3u6VUTFwREgxR/PjWLGQlClBU/alW6ArixkVf4sh/PADO17IZdX0hBXj9YCWmPPAlFFUDT/Sw8cxxTgyL8spab51qOu4BRUNulhVKwzIgSnXbjhfU4+jJQI/plNyTqJMpHrnn/JbB+Q/3hUJ10aU7ePzP74pw1iW3OVNhE+4IoRQQBWDDyktwy89OAtBgFTl4/RR3/vo0hvex4rJLrBh8iQ1ykOL0WRnHCvw4dS5o9tP3yfq0Y/m9vaO+TMcRr/cXUake+frTnnJcM9IJq0TAccCJgnosWVuEBCsTVkuoVM9zqar+QBrQx4aH52VixcZSs2/nsieLsH1tXqt5waiLS+D1HEpXLk8wilODqr5itqugFOjXy4o9Tw/C/FWnUFarwGnTVxuXVIZQ6Api7/se00aR50xhVdfrrbY3/LJ/1JfNUwr0zbFi3LA4HPlcj3gVFMu4au5nyOstobQyhLJaPXGcHM/D2xAF68p7dzEQCp5f7RyQKWbdkI53j3rMe/rpNwHkv1yCxfNyWvy9R3Va6LQR/HpjCQ4fc3doOUSkGD5MWUUQDz1xGqdL5S5vVBNSNGSlWfCX/MFYMC0V5V4Vbj+FpmkQeb2vhyRyEHm92NYn66uUF96Uii2PD2q1fMbtp3D7KTxt1B0CgMunH+fyNf0QOUjxyKI+cNgJfLKmL6EXOZwulVEf0I+dMjoBU8cloqpehSegoaq2uf8lB/XPr/JRMwndmKCitwuv9lEE2xh95SA1Oyz7As0/xxOgqJOpGYG9EJ+sv96aHaFQeHbUBSnkkIYqX8vHeAL6d1QfbH4O457aJQ7V9RQ8AX6x1dVq2VhURy6eAJVuBbN/eRqTRtixfEFuzHqzG3str9+mdwVKsJKoNAyNBGNR4eJ5OZg9JR3v/KsG7x71wFWtwFOvwidTJDkEZCbxuGpEPCZdk2zO5S+8L8bfq+7OMv/POPZCEhwCnl+UA57noKoa0pLFJp+T6OCxf/0QbNhWivc/rUOhK4g4K8GwHAumXpuMmyem4ugJr/keu5Uzn8B6uJnDbZOSAOgzkkv7xzWxQ1U1zJmShinj9TpLp0NoMVFskwjmTE4x/x45NL5J8MZm5bFibgYkC4EcpBjQ29bkdUKAu6amtGqHomi4a1qKWTuYkii2GBwihMOi6eerRS7tH9fMjp9OT4UgcFAUDf1y7U1eN1YzbFx5CY4X1Jlt80pcMniS0KyMKqyOu3kzPu1wf3hF1dV/+4SkqO6VZUwB33inCuu2noPXRzucCHX7KR5fmI3rv58a9Y5KjXsWBoIaKNXglylsEoG9YYlKOGuJGkeiWju+8blaO86o6A7IFJ56fZqT6ODNCobGvfpa6kvYnh0XRsxaup+GncaP8cLfQTjX0RE72rtf7dnR2uut2dvadccsoCHwHOIlDn/+Ry1ePViDpbPTzc0WIvlBGz+Cjz7zYvWmEnxRLMNpIz2uwkCPxhk1fADAQbLoD6aOXHc4xzY+V1vHBGQKQnRRXfi+9vqPtGdHR+xs7dhwrqMr7Wjvs8KxF4hxtJAneoJVpRzWvFKOnW/XYsmPMs1GJ+GMYo33Wn76pSLsPuxBgpXr1h0sw6Un9XnoSbb8fyGsX6istH9MW/AESI4jqHQr+MkTRZj7cAG+Ou1vN+ghChzkoIZNO0ox5u7Pse9fepelzuZlVAqoWs8a8RjfPsIS16QRdpR7zyclI4UnegKuoFjGbT//GqvyC1HrVZuJzIgCvvVBDW5e/F88vaMCKXF8p6eAKtVzS3YL18xpZjCiTVib31klgsPH3PjtC6VR7c3eePO7Wyanw24lMdv8zogk3X9LKm6fmhn1VsgMxoWEvW2rsVfWnoMVeHTzuajtlWVsL9QrWcDSO7Jw7PM6vHqwJurbts4c58S9s7JaDYEzGNGmQxuONw4ubNpRhs37q6O226TRrTaaGyqUe1WMH2rHkjtyMCwvjm04zuhSOiQuA0NksZi+dRZja1a7xGH5nZn44Tg9+chExehqIhKXASH6or+/H6rG2j+VoaxWQbzUfXtlGXuC3TMlBQtuy4LdSi6a1seMbx+dEpeB4Y/98c9l2Li3ssv3yjL6tI8fGtuSKwajI0RFXEBTf2ztC8XY/b4nav5YaxjBkP6ZFiyfn21ugMBExegJRE1cBkbd1ZenfFj1bLFZphTtqWIgpEFWNKy4IxM3TkiLuKyKwYgVUReXgSGyfe9W4oktLrOXQ2dFZoTWb782EQ/MzYlaQTCDEW1iJi4DY2nIi7vOYf3rlRHnx4wp4IhLrFi5oBcuGxTHRMXo0cRcXMB5f6yoNIBnXyntkD9m5L+yEvUkc6Tb0DAYXU2XiMvAmCp+8mWduWykrep2w69aMC0Vd8/IhN1KmF/FuGjoUnEZGAvbdr5ZgfxtLvhkDZLImf6Y4VdNvzoB98/JZiVLjIuSbhGXgShwqHIreHHnOWw5UA1J4OALauifacHKBTkYNczBksCMi5ZuFRdwvsrjZKEf614qwdjvOHDL5LQWG+kzGBcT3S4uA2M9F084NloxvhX0mKaghphitSEag9HV9IA6dgbj2wkTF4MRI5i4GIwYwcTFYMQIJi4GI0YwcTEYMeL/AH0A0ynTqR+8AAAAAElFTkSuQmCC;" parent="1" vertex="1">
          <mxGeometry x="318" y="270" width="215" height="76" as="geometry" />
        </mxCell>
        <mxCell id="-Sxr7ymy98c5-R17WDKF-48" value="&lt;font color=&quot;#000000&quot; style=&quot;font-size: 20px;&quot;&gt;&lt;b&gt;VRF&lt;/b&gt;&lt;/font&gt;" style="text;html=1;align=center;verticalAlign=middle;resizable=0;points=[];autosize=1;strokeColor=none;fillColor=none;" parent="1" vertex="1">
          <mxGeometry x="476" y="311" width="60" height="40" as="geometry" />
        </mxCell>
        <mxCell id="qmlk9hXNrN-jaDAkJxet-21" style="edgeStyle=orthogonalEdgeStyle;rounded=0;orthogonalLoop=1;jettySize=auto;html=1;entryX=0.5;entryY=1;entryDx=0;entryDy=0;" edge="1" parent="1" source="-Sxr7ymy98c5-R17WDKF-49" target="qmlk9hXNrN-jaDAkJxet-9">
          <mxGeometry relative="1" as="geometry" />
        </mxCell>
        <mxCell id="qmlk9hXNrN-jaDAkJxet-22" style="edgeStyle=orthogonalEdgeStyle;rounded=0;orthogonalLoop=1;jettySize=auto;html=1;entryX=0.5;entryY=1;entryDx=0;entryDy=0;" edge="1" parent="1" source="-Sxr7ymy98c5-R17WDKF-49" target="qmlk9hXNrN-jaDAkJxet-10">
          <mxGeometry relative="1" as="geometry" />
        </mxCell>
        <mxCell id="qmlk9hXNrN-jaDAkJxet-23" style="edgeStyle=orthogonalEdgeStyle;rounded=0;orthogonalLoop=1;jettySize=auto;html=1;entryX=0.5;entryY=1;entryDx=0;entryDy=0;" edge="1" parent="1" source="-Sxr7ymy98c5-R17WDKF-49" target="qmlk9hXNrN-jaDAkJxet-11">
          <mxGeometry relative="1" as="geometry" />
        </mxCell>
        <mxCell id="-Sxr7ymy98c5-R17WDKF-49" value="Claim Prize" style="rounded=0;whiteSpace=wrap;html=1;" parent="1" vertex="1">
          <mxGeometry x="180" y="830" width="120" height="60" as="geometry" />
        </mxCell>
        <mxCell id="-Sxr7ymy98c5-R17WDKF-61" style="edgeStyle=orthogonalEdgeStyle;rounded=0;orthogonalLoop=1;jettySize=auto;html=1;entryX=0.5;entryY=0;entryDx=0;entryDy=0;" parent="1" source="-Sxr7ymy98c5-R17WDKF-51" target="-Sxr7ymy98c5-R17WDKF-59" edge="1">
          <mxGeometry relative="1" as="geometry" />
        </mxCell>
        <mxCell id="qmlk9hXNrN-jaDAkJxet-25" style="edgeStyle=orthogonalEdgeStyle;rounded=0;orthogonalLoop=1;jettySize=auto;html=1;entryX=0.5;entryY=0;entryDx=0;entryDy=0;" edge="1" parent="1" source="-Sxr7ymy98c5-R17WDKF-51" target="qmlk9hXNrN-jaDAkJxet-24">
          <mxGeometry relative="1" as="geometry" />
        </mxCell>
        <mxCell id="-Sxr7ymy98c5-R17WDKF-51" value="" style="shape=image;verticalLabelPosition=bottom;labelBackgroundColor=default;verticalAlign=top;aspect=fixed;imageAspect=0;image=data:image/png,iVBORw0KGgoAAAANSUhEUgAAANcAAABMCAYAAAD+3CI1AAAWnklEQVR4nO2de3wU1dnHf3NmZmd3k83mfiVc5BIEAS3SCgrUfoCiAiooghS8ULGovBSl+FIKrdZSsaCmVkGoYgVFKFDBliJitYjSimgFL42IJIQkbO67m+zu7M6cef+YzJCQ22azmwTf8/2LsLM7z8zub855Luc5XL1f1cBgMKIO6W4DGIxvK0xcDEaMYOJiMGIEExeDESN6jLgIAawSgShw3W0KgxEVul1chAA2K8GZUhnLfvcNdr5ZAVHgQLrdMgajc3DdGYoXBQ5VbgWbdpTh1YM1EAmHgKJhSK6En9+TgysujYdKNVDaXRYyGJHTLeIypn4736xA/jYXfLIGSeTAN4xWiqqh2kcxc5wT987KQp9sK4IhykTGuKjoUnERAvCEwydf1mH1phJ8USwjOa71+Z9P1k27/5ZUzLohA3YrQUhhOW/GxUGXiIsQwCISFJUG8PxrZdhxyI1kO4HAtx+8UClQJ1NkJQpYekcWJo9NZqMY46Ig5uISBQ6+AMVrf3Nh3WsVsAoc7FLHI4IqBdx+ilEDrXh4fi9cNiiOiYzRo4mZuIzR6uAHNXj8xVKU1SqIl4jpV0WK4Y/dNTkZ98zMQnqyyETG6JFEXVyGqL4u8uOR587g6MkAnLbOi+pCAiE9irhsbgZunJAGq4Vj/hijRxE1cRmiKq8OYdOOMmw5UIMEKxeWXxUpxlSxf6YFy+dn45qRTjaKMXoMURGXKOijxu4DFVj7iguUIiK/KlJUClTVqxg/1I4ld+Qwf4zRI+iUuAgBJAvBkU88eGJzabuh9VjD/DFGTyIicTUOrT/5Ugn+9qE37NB6V+CTNRACLJ2TgemT0syRlcHoSjosLlHgEAhqePWNc3h6RwUkgYNV7LyojHxWND/P7acYkivhwXlZGHulE3KQjWKMriNscRmFtIeOurFq/dlmJUuR0jgosWh2Bj742INd77kRZ4lOMMSYKk68Ih4P3ZmDAX1sbKrI6BLCEpfNSnCyUA+tHynwI93BR+XkPllDXZBixdwMzLw+A1YLB57n8NlX9VjzwlkcKfAjJY6PShg/ENIgKxoWTEvF3TMyWSkVI+a0Ky5R4PDIH4rw6ju1UfOrFFWDJ6Bh5ngnHpib0yzw0DgB/dTWczh1LhiVXJlKATmkX+7Wx/pjUD8bG8EYMSMscfW98VNkOzs/ghgh85EDbFi5oP0SJsO/27HPhTWvlMNuiY4/Vl1P8fh9OZh6bQobvRgxIyy5SAI6JSzDr3LYCJ5alIPta/MwqJ8NAblt3yekaBAF4K4ZWTj0xyGYMjoB1fUUSidTczwBeI6JKlzYwtXIEGJ9gkBIgydAsWh6munrBOTw52KUAgGZItHB49HFfTHzuuj7Y9HGWFoDAHzDNFpteCCEu/jTKp2/MFXVum2EtUp61U16shgzOww3wKCl2YxVIgiGKCwiiVlAKhw7OkLMxGX4VdNGO7B0fq7pV0X65RgiG9TPhi1r8qLuj0UDQ1RVbgUffOxGRXUQxWVBAEBulgVpyRZcMSQeWWkWAGjzi5u/4isAQFDR8IPvJmDeTZldLjBCgMc3FuPZvVXIdvJY92BvjL48Iap2EAKUVQTxi/wiWAQOdbKGe6anY9woZxMfPP/lEjyzuwLpDh6/f7gvhufFRVVghAC1XhWLVp9EvMQhqGi4d2YmvjvcEfF5YiKucq+KvGwJz93XC1de5kAwRDs0WrWFIbJrv5eI0Vc4sWOfC2u3lUMkkS1liRZGRHXdSyU4dKIeKgWsjXqBUAoEFA0K1TB+qB0LZ2dh1DBHs9wbIfqxJ04HAACegIbL8+LA812bCCcE+PjzOlNYmqZh+TPF2PfspZAsXNRHjo9PBRBn4VDto5jtU8ETDpTqxQAfHvdi7Y4KZDt5KKqGJWuLsH/9EIhC2w+ojuIPqDj2tR/JdqKvhK8NmnZEQtSf93aJYO0DvbD3mcEYnhfXrl8VKY39sXc2DsGtP0jstC8WCYTogZfH1p/B5MUFOFbgQ7xEkBxHIIkcBAIIBJBEDslxBOkOHidOB3Dz/57CY+vPgCctN+MReA4cx8Fu6Z4HBk84nKsMmv42x3GorlNR7Q7F5HySoF+vdEH3L55wKHHJiLPoOVWB51BYqaDer8bMDoHnIJDO3/eoisvtp/jVwl64eWIqQkrsG8s09sdW/KQ38nKlLhWYIYqHnjiNLQdqkO7gIfAc5JCGcq8KTdOQlythZJ4dAFBcoyIQ0iDwHHKTeGw5UIOV+YWmf9aTUKmGMd9xIt3Bo7qeotSt4obvOZCVZunS9IVKNVx1eQIUqsHtpyj3qpgyKh6JDr7Hp1GiOi1UGy5WDnbtVRsi62osIsGq/ELsP+pFchwxS7hmjHVi3k0ZGNDHZh7LcUBhid7mYM8HHjht+ui245Ablw0sx+1TM7rlGlqDUiDRwePNDUPw9pEaxNt5TBiThGCo67/brDQL3n5uMF4/WIU+2RImj03uUhsiJebRwm8rosDh8DE3Nr9Vi9wk3szhvbSyn7mu7EKxZKVZsPrBfhg9ogL3PVWC3CQe6Q4ea19xYeoPUiGFOQU0/LJICff9lAKShcPUa1OgUq3bxG8I7IE52QDCj7h2Nz0gxnbxQYju8/32hVJkJei30O2n2LCsD64Z6WzVzzRG2GkT0rB0ZprZ3coToNi5v7zd6aEocA0V/vrfVomEnYMSBc4M78tBzXx/ex2OzZRCK76hYVPjRq5G92Tj72h0Ug733rRkh0G0OjobfvaF57sQNnJFyEefeVFQKiPdwSMQ0vDDK+MxYUxSWE93OUgxe0o6Nv+1CsU1KsYMtiE3y9rq8YLAgeOA7fvK8ffDtaj2UkgihwG9LJg+MRVXXZ7Q6nmN9MA7/67FgfdrUOQKIRTSIIoc+mdbMG6Us9WOWioF9rxZYeboLsm14TtD483jRIHDvncr4fXp/5GeYsHEq5Nw9IQXuw9U4lRpEKGQhtwMEdeNTYq4cxcheo/Ltux4450q+BqCHL2zrRh7pRMnCurx8h4Xilx6ECYzWcB1Y5MwcUxSRKOfIaIPj3ub3O94O9/EHgMmrgiwiASHj3mQYNXvtidAMXdaetj+CKVAilPA2p/mYvjgeGSkiFAUPUHb0lOwzqfiR8sKcPRkAAlWPaqmaRoKXUFs+6cH909Lwc/m92oWqjdySEvWFOJ4UQAJVgKh0eefPCtjxyE3hu8sx4Zf9m8SJDBG5027K3C2WkF9UMNPpzcVMs9z2HGgGkcK/ACA269NRJ1PxdwnzmBgsmCeq9AVxN8+9GL0Xyvw3KoBHQ7lUwrkb3Ohup62aIcgcHj5jUp8USxDoRp+fH0KSlwylj5XirT489d88qxs2rHhVwM7FMo3EszLfvcNtv3TgzgLh/qghr6pArauHtDye8K/RIYBxwHv/acOIs9BpXr4dnheXIc+I6RoGDfKiUQHD3+g9eS6VeSw51AtCopl2C0cPAE9ama8lpvE44/7qvDWBzVNpjy6OID7HjuNQlcQ6Q3CKfPoP9AyT8No4+DxTVkQi1Z/06Q6wUCyEDhtBCl2AqGFKZVF4JBsJ0iJ43GswI/fbi7DwGQBsqIXEShUtzPdwePjUwH8fksJJEvHf3Z2qW07RJFDglU/z3v/qcO6reeQFk8gKxrqg03tOHoygGe2lLR4vS1hCGvdi2ex+30PcpN4JFj1e7/rybxWI6hMXBFS41XMf/dNt0CykA5PMygN78kp8ByCCjBldAL+sLQ3nl6Si2H9rAg0VPgn2wk27iyH2ijZyRMOO/a5cOpcEFaRg9tPsfi2NJzcNRxf7BqBL7YPw5xJyfDJGuwSh2Nf+3H4mDviOkKe6PfE7acYOzwOjy/Mxh+W9saEkfHmw8BpI9i8vxqFJYGY1ivWePWR1rAj/8HeGDci3vRxnTaC1w7WoKg0PDsMYa3fW4l0h57ITrDzeD1/cJspATYtjJDiGhW5SfqNzkziocUwveb2U6y6OwuzbkiH0jDCTRyThAceO4VjBT4IPIfjRQHUelXzyxYEDi++UdXw1FYxc5wTd9+SBTlI4Q9QSBYO98/Jxj8+8qLSrSDBSvDvT71mQCYSfLKGhTelYvG8HNM/mnh1EpKfL8ZrB2tgl/Tk7MlCP3plSBFXPoRjx4JpTe2YMCYJv9lwBrverYVV1Df8aM8O0cJDEDhs3F7aRFgKBV54tD9SnEKbVTNs5IoCdbIGLkZ5YJXqI+OsG9LN6aPxhc6fkYFq33khlFcGzX/LQYq3nh+Cvz85ECvmZmD6pFRTmKLAwSISWCXS8GDQIBDgzDm5U3amJvD48a1ZZg1pSNEagjdp5nFWgcPps/6IzxMOdonDwtlN7QiGKO6ZmWWOMlaBQ3FZoM3PEXgOL+4sw5pXy01hSRaCvzw5CL0ypHbL0djIFSF9UwUEG6otil3B9t/QAo3rDltD0zQMzJWajYwq1ZDoaPr1BRol7ynVP//S/nYMa/AHXVUhlFcGcdYlo+C0H/897ccnpwKwilynK1sMO+NszVc92Kw8HHZijiKxRFE1jMyzgyfNazFtDekBo9ihrWtOsHLY9VYVjnzuQ7pDz2MKPIetqweEJSyAiSsiNA24rJ8Vxwp8ADiUe1UUlgQ6VBpkVGHbJAJHHN9qiFrpZLK0yq1g21/Lsf2tahTXqJAEQCAcrA1Bge4sdu4OKAUQRpcKgedwrMBn3h+ewPQd1TCns2xaGAGqquGHVyfCE9BvcryF4B9HasKOPgF6FO6hNd/g5sX/xW82nMHxgvqoOvlGGP72ZV9h495KqBRIsesnUKgexBh/eRySHOz52hpCQzTYCBzFWTgsWVNozgrag4krAoyiVrtFv/l2icOm1yvDjj6JAocjn3hw9GQAXj/FlgM12Pt2VatVCLkZlg7baBEJfpFfhOo6FfESQUjVsPzOTOzPz8Nn24fjyNZh+P2K/hjar2uLnS8mFFVDTqqIGd9PhE/WXYCCEhnrNp8NK53AxBUBlALpySLuuD4FdQ3+haJqWLKmECEFrZbEGOU4VW4FD64rMhd5KlTDzOvSwp5utAchQFFpAB83+FNySMOiW9Mw64Z09M6WQAjgD1DIQYqyytgsIbnYUak+JX/q4b5Y8ZPeyEkVoaiamU547yN3u6VUTFwREgxR/PjWLGQlClBU/alW6ArixkVf4sh/PADO17IZdX0hBXj9YCWmPPAlFFUDT/Sw8cxxTgyL8spab51qOu4BRUNulhVKwzIgSnXbjhfU4+jJQI/plNyTqJMpHrnn/JbB+Q/3hUJ10aU7ePzP74pw1iW3OVNhE+4IoRQQBWDDyktwy89OAtBgFTl4/RR3/vo0hvex4rJLrBh8iQ1ykOL0WRnHCvw4dS5o9tP3yfq0Y/m9vaO+TMcRr/cXUake+frTnnJcM9IJq0TAccCJgnosWVuEBCsTVkuoVM9zqar+QBrQx4aH52VixcZSs2/nsieLsH1tXqt5waiLS+D1HEpXLk8wilODqr5itqugFOjXy4o9Tw/C/FWnUFarwGnTVxuXVIZQ6Api7/se00aR50xhVdfrrbY3/LJ/1JfNUwr0zbFi3LA4HPlcj3gVFMu4au5nyOstobQyhLJaPXGcHM/D2xAF68p7dzEQCp5f7RyQKWbdkI53j3rMe/rpNwHkv1yCxfNyWvy9R3Va6LQR/HpjCQ4fc3doOUSkGD5MWUUQDz1xGqdL5S5vVBNSNGSlWfCX/MFYMC0V5V4Vbj+FpmkQeb2vhyRyEHm92NYn66uUF96Uii2PD2q1fMbtp3D7KTxt1B0CgMunH+fyNf0QOUjxyKI+cNgJfLKmL6EXOZwulVEf0I+dMjoBU8cloqpehSegoaq2uf8lB/XPr/JRMwndmKCitwuv9lEE2xh95SA1Oyz7As0/xxOgqJOpGYG9EJ+sv96aHaFQeHbUBSnkkIYqX8vHeAL6d1QfbH4O457aJQ7V9RQ8AX6x1dVq2VhURy6eAJVuBbN/eRqTRtixfEFuzHqzG3str9+mdwVKsJKoNAyNBGNR4eJ5OZg9JR3v/KsG7x71wFWtwFOvwidTJDkEZCbxuGpEPCZdk2zO5S+8L8bfq+7OMv/POPZCEhwCnl+UA57noKoa0pLFJp+T6OCxf/0QbNhWivc/rUOhK4g4K8GwHAumXpuMmyem4ugJr/keu5Uzn8B6uJnDbZOSAOgzkkv7xzWxQ1U1zJmShinj9TpLp0NoMVFskwjmTE4x/x45NL5J8MZm5bFibgYkC4EcpBjQ29bkdUKAu6amtGqHomi4a1qKWTuYkii2GBwihMOi6eerRS7tH9fMjp9OT4UgcFAUDf1y7U1eN1YzbFx5CY4X1Jlt80pcMniS0KyMKqyOu3kzPu1wf3hF1dV/+4SkqO6VZUwB33inCuu2noPXRzucCHX7KR5fmI3rv58a9Y5KjXsWBoIaKNXglylsEoG9YYlKOGuJGkeiWju+8blaO86o6A7IFJ56fZqT6ODNCobGvfpa6kvYnh0XRsxaup+GncaP8cLfQTjX0RE72rtf7dnR2uut2dvadccsoCHwHOIlDn/+Ry1ePViDpbPTzc0WIvlBGz+Cjz7zYvWmEnxRLMNpIz2uwkCPxhk1fADAQbLoD6aOXHc4xzY+V1vHBGQKQnRRXfi+9vqPtGdHR+xs7dhwrqMr7Wjvs8KxF4hxtJAneoJVpRzWvFKOnW/XYsmPMs1GJ+GMYo33Wn76pSLsPuxBgpXr1h0sw6Un9XnoSbb8fyGsX6istH9MW/AESI4jqHQr+MkTRZj7cAG+Ou1vN+ghChzkoIZNO0ox5u7Pse9fepelzuZlVAqoWs8a8RjfPsIS16QRdpR7zyclI4UnegKuoFjGbT//GqvyC1HrVZuJzIgCvvVBDW5e/F88vaMCKXF8p6eAKtVzS3YL18xpZjCiTVib31klgsPH3PjtC6VR7c3eePO7Wyanw24lMdv8zogk3X9LKm6fmhn1VsgMxoWEvW2rsVfWnoMVeHTzuajtlWVsL9QrWcDSO7Jw7PM6vHqwJurbts4c58S9s7JaDYEzGNGmQxuONw4ubNpRhs37q6O226TRrTaaGyqUe1WMH2rHkjtyMCwvjm04zuhSOiQuA0NksZi+dRZja1a7xGH5nZn44Tg9+chExehqIhKXASH6or+/H6rG2j+VoaxWQbzUfXtlGXuC3TMlBQtuy4LdSi6a1seMbx+dEpeB4Y/98c9l2Li3ssv3yjL6tI8fGtuSKwajI0RFXEBTf2ztC8XY/b4nav5YaxjBkP6ZFiyfn21ugMBExegJRE1cBkbd1ZenfFj1bLFZphTtqWIgpEFWNKy4IxM3TkiLuKyKwYgVUReXgSGyfe9W4oktLrOXQ2dFZoTWb782EQ/MzYlaQTCDEW1iJi4DY2nIi7vOYf3rlRHnx4wp4IhLrFi5oBcuGxTHRMXo0cRcXMB5f6yoNIBnXyntkD9m5L+yEvUkc6Tb0DAYXU2XiMvAmCp+8mWduWykrep2w69aMC0Vd8/IhN1KmF/FuGjoUnEZGAvbdr5ZgfxtLvhkDZLImf6Y4VdNvzoB98/JZiVLjIuSbhGXgShwqHIreHHnOWw5UA1J4OALauifacHKBTkYNczBksCMi5ZuFRdwvsrjZKEf614qwdjvOHDL5LQWG+kzGBcT3S4uA2M9F084NloxvhX0mKaghphitSEag9HV9IA6dgbj2wkTF4MRI5i4GIwYwcTFYMQIJi4GI0YwcTEYMeL/AH0A0ynTqR+8AAAAAElFTkSuQmCC;" parent="1" vertex="1">
          <mxGeometry x="321" y="360" width="215" height="76" as="geometry" />
        </mxCell>
        <mxCell id="-Sxr7ymy98c5-R17WDKF-52" value="&lt;font color=&quot;#000000&quot; style=&quot;font-size: 20px;&quot;&gt;&lt;b&gt;Automation&lt;/b&gt;&lt;/font&gt;" style="text;html=1;align=center;verticalAlign=middle;resizable=0;points=[];autosize=1;strokeColor=none;fillColor=none;" parent="1" vertex="1">
          <mxGeometry x="410" y="400" width="130" height="40" as="geometry" />
        </mxCell>
        <mxCell id="-Sxr7ymy98c5-R17WDKF-56" value="&lt;font style=&quot;font-size: 25px;&quot;&gt;Upgrade NFT&lt;/font&gt;" style="text;html=1;align=center;verticalAlign=middle;resizable=0;points=[];autosize=1;strokeColor=none;fillColor=none;" parent="1" vertex="1">
          <mxGeometry x="520" y="20" width="170" height="40" as="geometry" />
        </mxCell>
        <mxCell id="-Sxr7ymy98c5-R17WDKF-57" value="&lt;font style=&quot;font-size: 25px;&quot;&gt;Mint NFT&lt;/font&gt;" style="text;html=1;align=center;verticalAlign=middle;resizable=0;points=[];autosize=1;strokeColor=none;fillColor=none;" parent="1" vertex="1">
          <mxGeometry x="710" y="20" width="130" height="40" as="geometry" />
        </mxCell>
        <mxCell id="-Sxr7ymy98c5-R17WDKF-58" value="100% Team" style="rounded=1;whiteSpace=wrap;html=1;" parent="1" vertex="1">
          <mxGeometry x="715" y="70" width="120" height="60" as="geometry" />
        </mxCell>
        <mxCell id="qmlk9hXNrN-jaDAkJxet-6" style="edgeStyle=orthogonalEdgeStyle;rounded=0;orthogonalLoop=1;jettySize=auto;html=1;entryX=0;entryY=0.5;entryDx=0;entryDy=0;exitX=0.5;exitY=1;exitDx=0;exitDy=0;" edge="1" parent="1" source="-Sxr7ymy98c5-R17WDKF-59" target="qmlk9hXNrN-jaDAkJxet-3">
          <mxGeometry relative="1" as="geometry" />
        </mxCell>
        <mxCell id="-Sxr7ymy98c5-R17WDKF-59" value="Ending Season" style="rounded=0;whiteSpace=wrap;html=1;" parent="1" vertex="1">
          <mxGeometry x="180" y="450" width="120" height="60" as="geometry" />
        </mxCell>
        <mxCell id="-Sxr7ymy98c5-R17WDKF-63" value="" style="shape=image;verticalLabelPosition=bottom;labelBackgroundColor=default;verticalAlign=top;aspect=fixed;imageAspect=0;image=https://cryptologos.cc/logos/polygon-matic-logo.png;" parent="1" vertex="1">
          <mxGeometry x="533" y="60" width="36" height="36" as="geometry" />
        </mxCell>
        <mxCell id="-Sxr7ymy98c5-R17WDKF-64" value="" style="shape=image;verticalLabelPosition=bottom;labelBackgroundColor=default;verticalAlign=top;aspect=fixed;imageAspect=0;image=https://cryptologos.cc/logos/polygon-matic-logo.png;" parent="1" vertex="1">
          <mxGeometry x="700" y="60" width="36" height="36" as="geometry" />
        </mxCell>
        <mxCell id="-Sxr7ymy98c5-R17WDKF-65" value="" style="shape=image;verticalLabelPosition=bottom;labelBackgroundColor=default;verticalAlign=top;aspect=fixed;imageAspect=0;image=https://cryptologos.cc/logos/polygon-matic-logo.png;" parent="1" vertex="1">
          <mxGeometry x="160" y="810" width="36" height="36" as="geometry" />
        </mxCell>
        <mxCell id="qmlk9hXNrN-jaDAkJxet-18" style="edgeStyle=orthogonalEdgeStyle;rounded=0;orthogonalLoop=1;jettySize=auto;html=1;" edge="1" parent="1" source="qmlk9hXNrN-jaDAkJxet-3" target="qmlk9hXNrN-jaDAkJxet-7">
          <mxGeometry relative="1" as="geometry" />
        </mxCell>
        <mxCell id="qmlk9hXNrN-jaDAkJxet-3" value="" style="shape=image;verticalLabelPosition=bottom;labelBackgroundColor=default;verticalAlign=top;aspect=fixed;imageAspect=0;image=data:image/png,iVBORw0KGgoAAAANSUhEUgAAANcAAABMCAYAAAD+3CI1AAAWnklEQVR4nO2de3wU1dnHf3NmZmd3k83mfiVc5BIEAS3SCgrUfoCiAiooghS8ULGovBSl+FIKrdZSsaCmVkGoYgVFKFDBliJitYjSimgFL42IJIQkbO67m+zu7M6cef+YzJCQ22azmwTf8/2LsLM7z8zub855Luc5XL1f1cBgMKIO6W4DGIxvK0xcDEaMYOJiMGIEExeDESN6jLgIAawSgShw3W0KgxEVul1chAA2K8GZUhnLfvcNdr5ZAVHgQLrdMgajc3DdGYoXBQ5VbgWbdpTh1YM1EAmHgKJhSK6En9+TgysujYdKNVDaXRYyGJHTLeIypn4736xA/jYXfLIGSeTAN4xWiqqh2kcxc5wT987KQp9sK4IhykTGuKjoUnERAvCEwydf1mH1phJ8USwjOa71+Z9P1k27/5ZUzLohA3YrQUhhOW/GxUGXiIsQwCISFJUG8PxrZdhxyI1kO4HAtx+8UClQJ1NkJQpYekcWJo9NZqMY46Ig5uISBQ6+AMVrf3Nh3WsVsAoc7FLHI4IqBdx+ilEDrXh4fi9cNiiOiYzRo4mZuIzR6uAHNXj8xVKU1SqIl4jpV0WK4Y/dNTkZ98zMQnqyyETG6JFEXVyGqL4u8uOR587g6MkAnLbOi+pCAiE9irhsbgZunJAGq4Vj/hijRxE1cRmiKq8OYdOOMmw5UIMEKxeWXxUpxlSxf6YFy+dn45qRTjaKMXoMURGXKOijxu4DFVj7iguUIiK/KlJUClTVqxg/1I4ld+Qwf4zRI+iUuAgBJAvBkU88eGJzabuh9VjD/DFGTyIicTUOrT/5Ugn+9qE37NB6V+CTNRACLJ2TgemT0syRlcHoSjosLlHgEAhqePWNc3h6RwUkgYNV7LyojHxWND/P7acYkivhwXlZGHulE3KQjWKMriNscRmFtIeOurFq/dlmJUuR0jgosWh2Bj742INd77kRZ4lOMMSYKk68Ih4P3ZmDAX1sbKrI6BLCEpfNSnCyUA+tHynwI93BR+XkPllDXZBixdwMzLw+A1YLB57n8NlX9VjzwlkcKfAjJY6PShg/ENIgKxoWTEvF3TMyWSkVI+a0Ky5R4PDIH4rw6ju1UfOrFFWDJ6Bh5ngnHpib0yzw0DgB/dTWczh1LhiVXJlKATmkX+7Wx/pjUD8bG8EYMSMscfW98VNkOzs/ghgh85EDbFi5oP0SJsO/27HPhTWvlMNuiY4/Vl1P8fh9OZh6bQobvRgxIyy5SAI6JSzDr3LYCJ5alIPta/MwqJ8NAblt3yekaBAF4K4ZWTj0xyGYMjoB1fUUSidTczwBeI6JKlzYwtXIEGJ9gkBIgydAsWh6munrBOTw52KUAgGZItHB49HFfTHzuuj7Y9HGWFoDAHzDNFpteCCEu/jTKp2/MFXVum2EtUp61U16shgzOww3wKCl2YxVIgiGKCwiiVlAKhw7OkLMxGX4VdNGO7B0fq7pV0X65RgiG9TPhi1r8qLuj0UDQ1RVbgUffOxGRXUQxWVBAEBulgVpyRZcMSQeWWkWAGjzi5u/4isAQFDR8IPvJmDeTZldLjBCgMc3FuPZvVXIdvJY92BvjL48Iap2EAKUVQTxi/wiWAQOdbKGe6anY9woZxMfPP/lEjyzuwLpDh6/f7gvhufFRVVghAC1XhWLVp9EvMQhqGi4d2YmvjvcEfF5YiKucq+KvGwJz93XC1de5kAwRDs0WrWFIbJrv5eI0Vc4sWOfC2u3lUMkkS1liRZGRHXdSyU4dKIeKgWsjXqBUAoEFA0K1TB+qB0LZ2dh1DBHs9wbIfqxJ04HAACegIbL8+LA812bCCcE+PjzOlNYmqZh+TPF2PfspZAsXNRHjo9PBRBn4VDto5jtU8ETDpTqxQAfHvdi7Y4KZDt5KKqGJWuLsH/9EIhC2w+ojuIPqDj2tR/JdqKvhK8NmnZEQtSf93aJYO0DvbD3mcEYnhfXrl8VKY39sXc2DsGtP0jstC8WCYTogZfH1p/B5MUFOFbgQ7xEkBxHIIkcBAIIBJBEDslxBOkOHidOB3Dz/57CY+vPgCctN+MReA4cx8Fu6Z4HBk84nKsMmv42x3GorlNR7Q7F5HySoF+vdEH3L55wKHHJiLPoOVWB51BYqaDer8bMDoHnIJDO3/eoisvtp/jVwl64eWIqQkrsG8s09sdW/KQ38nKlLhWYIYqHnjiNLQdqkO7gIfAc5JCGcq8KTdOQlythZJ4dAFBcoyIQ0iDwHHKTeGw5UIOV+YWmf9aTUKmGMd9xIt3Bo7qeotSt4obvOZCVZunS9IVKNVx1eQIUqsHtpyj3qpgyKh6JDr7Hp1GiOi1UGy5WDnbtVRsi62osIsGq/ELsP+pFchwxS7hmjHVi3k0ZGNDHZh7LcUBhid7mYM8HHjht+ui245Ablw0sx+1TM7rlGlqDUiDRwePNDUPw9pEaxNt5TBiThGCo67/brDQL3n5uMF4/WIU+2RImj03uUhsiJebRwm8rosDh8DE3Nr9Vi9wk3szhvbSyn7mu7EKxZKVZsPrBfhg9ogL3PVWC3CQe6Q4ea19xYeoPUiGFOQU0/LJICff9lAKShcPUa1OgUq3bxG8I7IE52QDCj7h2Nz0gxnbxQYju8/32hVJkJei30O2n2LCsD64Z6WzVzzRG2GkT0rB0ZprZ3coToNi5v7zd6aEocA0V/vrfVomEnYMSBc4M78tBzXx/ex2OzZRCK76hYVPjRq5G92Tj72h0Ug733rRkh0G0OjobfvaF57sQNnJFyEefeVFQKiPdwSMQ0vDDK+MxYUxSWE93OUgxe0o6Nv+1CsU1KsYMtiE3y9rq8YLAgeOA7fvK8ffDtaj2UkgihwG9LJg+MRVXXZ7Q6nmN9MA7/67FgfdrUOQKIRTSIIoc+mdbMG6Us9WOWioF9rxZYeboLsm14TtD483jRIHDvncr4fXp/5GeYsHEq5Nw9IQXuw9U4lRpEKGQhtwMEdeNTYq4cxcheo/Ltux4450q+BqCHL2zrRh7pRMnCurx8h4Xilx6ECYzWcB1Y5MwcUxSRKOfIaIPj3ub3O94O9/EHgMmrgiwiASHj3mQYNXvtidAMXdaetj+CKVAilPA2p/mYvjgeGSkiFAUPUHb0lOwzqfiR8sKcPRkAAlWPaqmaRoKXUFs+6cH909Lwc/m92oWqjdySEvWFOJ4UQAJVgKh0eefPCtjxyE3hu8sx4Zf9m8SJDBG5027K3C2WkF9UMNPpzcVMs9z2HGgGkcK/ACA269NRJ1PxdwnzmBgsmCeq9AVxN8+9GL0Xyvw3KoBHQ7lUwrkb3Ohup62aIcgcHj5jUp8USxDoRp+fH0KSlwylj5XirT489d88qxs2rHhVwM7FMo3EszLfvcNtv3TgzgLh/qghr6pArauHtDye8K/RIYBxwHv/acOIs9BpXr4dnheXIc+I6RoGDfKiUQHD3+g9eS6VeSw51AtCopl2C0cPAE9ama8lpvE44/7qvDWBzVNpjy6OID7HjuNQlcQ6Q3CKfPoP9AyT8No4+DxTVkQi1Z/06Q6wUCyEDhtBCl2AqGFKZVF4JBsJ0iJ43GswI/fbi7DwGQBsqIXEShUtzPdwePjUwH8fksJJEvHf3Z2qW07RJFDglU/z3v/qcO6reeQFk8gKxrqg03tOHoygGe2lLR4vS1hCGvdi2ex+30PcpN4JFj1e7/rybxWI6hMXBFS41XMf/dNt0CykA5PMygN78kp8ByCCjBldAL+sLQ3nl6Si2H9rAg0VPgn2wk27iyH2ijZyRMOO/a5cOpcEFaRg9tPsfi2NJzcNRxf7BqBL7YPw5xJyfDJGuwSh2Nf+3H4mDviOkKe6PfE7acYOzwOjy/Mxh+W9saEkfHmw8BpI9i8vxqFJYGY1ivWePWR1rAj/8HeGDci3vRxnTaC1w7WoKg0PDsMYa3fW4l0h57ITrDzeD1/cJspATYtjJDiGhW5SfqNzkziocUwveb2U6y6OwuzbkiH0jDCTRyThAceO4VjBT4IPIfjRQHUelXzyxYEDi++UdXw1FYxc5wTd9+SBTlI4Q9QSBYO98/Jxj8+8qLSrSDBSvDvT71mQCYSfLKGhTelYvG8HNM/mnh1EpKfL8ZrB2tgl/Tk7MlCP3plSBFXPoRjx4JpTe2YMCYJv9lwBrverYVV1Df8aM8O0cJDEDhs3F7aRFgKBV54tD9SnEKbVTNs5IoCdbIGLkZ5YJXqI+OsG9LN6aPxhc6fkYFq33khlFcGzX/LQYq3nh+Cvz85ECvmZmD6pFRTmKLAwSISWCXS8GDQIBDgzDm5U3amJvD48a1ZZg1pSNEagjdp5nFWgcPps/6IzxMOdonDwtlN7QiGKO6ZmWWOMlaBQ3FZoM3PEXgOL+4sw5pXy01hSRaCvzw5CL0ypHbL0djIFSF9UwUEG6otil3B9t/QAo3rDltD0zQMzJWajYwq1ZDoaPr1BRol7ynVP//S/nYMa/AHXVUhlFcGcdYlo+C0H/897ccnpwKwilynK1sMO+NszVc92Kw8HHZijiKxRFE1jMyzgyfNazFtDekBo9ihrWtOsHLY9VYVjnzuQ7pDz2MKPIetqweEJSyAiSsiNA24rJ8Vxwp8ADiUe1UUlgQ6VBpkVGHbJAJHHN9qiFrpZLK0yq1g21/Lsf2tahTXqJAEQCAcrA1Bge4sdu4OKAUQRpcKgedwrMBn3h+ewPQd1TCns2xaGAGqquGHVyfCE9BvcryF4B9HasKOPgF6FO6hNd/g5sX/xW82nMHxgvqoOvlGGP72ZV9h495KqBRIsesnUKgexBh/eRySHOz52hpCQzTYCBzFWTgsWVNozgrag4krAoyiVrtFv/l2icOm1yvDjj6JAocjn3hw9GQAXj/FlgM12Pt2VatVCLkZlg7baBEJfpFfhOo6FfESQUjVsPzOTOzPz8Nn24fjyNZh+P2K/hjar2uLnS8mFFVDTqqIGd9PhE/WXYCCEhnrNp8NK53AxBUBlALpySLuuD4FdQ3+haJqWLKmECEFrZbEGOU4VW4FD64rMhd5KlTDzOvSwp5utAchQFFpAB83+FNySMOiW9Mw64Z09M6WQAjgD1DIQYqyytgsIbnYUak+JX/q4b5Y8ZPeyEkVoaiamU547yN3u6VUTFwREgxR/PjWLGQlClBU/alW6ArixkVf4sh/PADO17IZdX0hBXj9YCWmPPAlFFUDT/Sw8cxxTgyL8spab51qOu4BRUNulhVKwzIgSnXbjhfU4+jJQI/plNyTqJMpHrnn/JbB+Q/3hUJ10aU7ePzP74pw1iW3OVNhE+4IoRQQBWDDyktwy89OAtBgFTl4/RR3/vo0hvex4rJLrBh8iQ1ykOL0WRnHCvw4dS5o9tP3yfq0Y/m9vaO+TMcRr/cXUake+frTnnJcM9IJq0TAccCJgnosWVuEBCsTVkuoVM9zqar+QBrQx4aH52VixcZSs2/nsieLsH1tXqt5waiLS+D1HEpXLk8wilODqr5itqugFOjXy4o9Tw/C/FWnUFarwGnTVxuXVIZQ6Api7/se00aR50xhVdfrrbY3/LJ/1JfNUwr0zbFi3LA4HPlcj3gVFMu4au5nyOstobQyhLJaPXGcHM/D2xAF68p7dzEQCp5f7RyQKWbdkI53j3rMe/rpNwHkv1yCxfNyWvy9R3Va6LQR/HpjCQ4fc3doOUSkGD5MWUUQDz1xGqdL5S5vVBNSNGSlWfCX/MFYMC0V5V4Vbj+FpmkQeb2vhyRyEHm92NYn66uUF96Uii2PD2q1fMbtp3D7KTxt1B0CgMunH+fyNf0QOUjxyKI+cNgJfLKmL6EXOZwulVEf0I+dMjoBU8cloqpehSegoaq2uf8lB/XPr/JRMwndmKCitwuv9lEE2xh95SA1Oyz7As0/xxOgqJOpGYG9EJ+sv96aHaFQeHbUBSnkkIYqX8vHeAL6d1QfbH4O457aJQ7V9RQ8AX6x1dVq2VhURy6eAJVuBbN/eRqTRtixfEFuzHqzG3str9+mdwVKsJKoNAyNBGNR4eJ5OZg9JR3v/KsG7x71wFWtwFOvwidTJDkEZCbxuGpEPCZdk2zO5S+8L8bfq+7OMv/POPZCEhwCnl+UA57noKoa0pLFJp+T6OCxf/0QbNhWivc/rUOhK4g4K8GwHAumXpuMmyem4ugJr/keu5Uzn8B6uJnDbZOSAOgzkkv7xzWxQ1U1zJmShinj9TpLp0NoMVFskwjmTE4x/x45NL5J8MZm5bFibgYkC4EcpBjQ29bkdUKAu6amtGqHomi4a1qKWTuYkii2GBwihMOi6eerRS7tH9fMjp9OT4UgcFAUDf1y7U1eN1YzbFx5CY4X1Jlt80pcMniS0KyMKqyOu3kzPu1wf3hF1dV/+4SkqO6VZUwB33inCuu2noPXRzucCHX7KR5fmI3rv58a9Y5KjXsWBoIaKNXglylsEoG9YYlKOGuJGkeiWju+8blaO86o6A7IFJ56fZqT6ODNCobGvfpa6kvYnh0XRsxaup+GncaP8cLfQTjX0RE72rtf7dnR2uut2dvadccsoCHwHOIlDn/+Ry1ePViDpbPTzc0WIvlBGz+Cjz7zYvWmEnxRLMNpIz2uwkCPxhk1fADAQbLoD6aOXHc4xzY+V1vHBGQKQnRRXfi+9vqPtGdHR+xs7dhwrqMr7Wjvs8KxF4hxtJAneoJVpRzWvFKOnW/XYsmPMs1GJ+GMYo33Wn76pSLsPuxBgpXr1h0sw6Un9XnoSbb8fyGsX6istH9MW/AESI4jqHQr+MkTRZj7cAG+Ou1vN+ghChzkoIZNO0ox5u7Pse9fepelzuZlVAqoWs8a8RjfPsIS16QRdpR7zyclI4UnegKuoFjGbT//GqvyC1HrVZuJzIgCvvVBDW5e/F88vaMCKXF8p6eAKtVzS3YL18xpZjCiTVib31klgsPH3PjtC6VR7c3eePO7Wyanw24lMdv8zogk3X9LKm6fmhn1VsgMxoWEvW2rsVfWnoMVeHTzuajtlWVsL9QrWcDSO7Jw7PM6vHqwJurbts4c58S9s7JaDYEzGNGmQxuONw4ubNpRhs37q6O226TRrTaaGyqUe1WMH2rHkjtyMCwvjm04zuhSOiQuA0NksZi+dRZja1a7xGH5nZn44Tg9+chExehqIhKXASH6or+/H6rG2j+VoaxWQbzUfXtlGXuC3TMlBQtuy4LdSi6a1seMbx+dEpeB4Y/98c9l2Li3ssv3yjL6tI8fGtuSKwajI0RFXEBTf2ztC8XY/b4nav5YaxjBkP6ZFiyfn21ugMBExegJRE1cBkbd1ZenfFj1bLFZphTtqWIgpEFWNKy4IxM3TkiLuKyKwYgVUReXgSGyfe9W4oktLrOXQ2dFZoTWb782EQ/MzYlaQTCDEW1iJi4DY2nIi7vOYf3rlRHnx4wp4IhLrFi5oBcuGxTHRMXo0cRcXMB5f6yoNIBnXyntkD9m5L+yEvUkc6Tb0DAYXU2XiMvAmCp+8mWduWykrep2w69aMC0Vd8/IhN1KmF/FuGjoUnEZGAvbdr5ZgfxtLvhkDZLImf6Y4VdNvzoB98/JZiVLjIuSbhGXgShwqHIreHHnOWw5UA1J4OALauifacHKBTkYNczBksCMi5ZuFRdwvsrjZKEf614qwdjvOHDL5LQWG+kzGBcT3S4uA2M9F084NloxvhX0mKaghphitSEag9HV9IA6dgbj2wkTF4MRI5i4GIwYwcTFYMQIJi4GI0YwcTEYMeL/AH0A0ynTqR+8AAAAAElFTkSuQmCC;" vertex="1" parent="1">
          <mxGeometry x="318" y="570" width="215" height="76" as="geometry" />
        </mxCell>
        <mxCell id="qmlk9hXNrN-jaDAkJxet-4" value="&lt;font color=&quot;#000000&quot; style=&quot;font-size: 20px;&quot;&gt;&lt;b&gt;Functions&lt;/b&gt;&lt;/font&gt;" style="text;html=1;align=center;verticalAlign=middle;resizable=0;points=[];autosize=1;strokeColor=none;fillColor=none;" vertex="1" parent="1">
          <mxGeometry x="417" y="611" width="120" height="40" as="geometry" />
        </mxCell>
        <mxCell id="qmlk9hXNrN-jaDAkJxet-20" style="edgeStyle=orthogonalEdgeStyle;rounded=0;orthogonalLoop=1;jettySize=auto;html=1;entryX=1;entryY=0.5;entryDx=0;entryDy=0;exitX=0.5;exitY=1;exitDx=0;exitDy=0;" edge="1" parent="1" source="qmlk9hXNrN-jaDAkJxet-7" target="qmlk9hXNrN-jaDAkJxet-14">
          <mxGeometry relative="1" as="geometry" />
        </mxCell>
        <mxCell id="qmlk9hXNrN-jaDAkJxet-7" value="" style="shape=image;verticalLabelPosition=bottom;labelBackgroundColor=default;verticalAlign=top;aspect=fixed;imageAspect=0;image=https://moralis.io/wp-content/uploads/2022/05/Moralis-Logo-LightBG-Large.png;" vertex="1" parent="1">
          <mxGeometry x="603.5" y="581.6" width="176" height="52.8" as="geometry" />
        </mxCell>
        <mxCell id="qmlk9hXNrN-jaDAkJxet-9" value="NFT&lt;br&gt;#1" style="whiteSpace=wrap;html=1;aspect=fixed;" vertex="1" parent="1">
          <mxGeometry x="409" y="737" width="50" height="50" as="geometry" />
        </mxCell>
        <mxCell id="qmlk9hXNrN-jaDAkJxet-10" value="NFT&lt;br&gt;#2" style="whiteSpace=wrap;html=1;aspect=fixed;" vertex="1" parent="1">
          <mxGeometry x="469" y="737" width="50" height="50" as="geometry" />
        </mxCell>
        <mxCell id="qmlk9hXNrN-jaDAkJxet-11" value="NFT&lt;br&gt;#3" style="whiteSpace=wrap;html=1;aspect=fixed;" vertex="1" parent="1">
          <mxGeometry x="529" y="737" width="50" height="50" as="geometry" />
        </mxCell>
        <mxCell id="qmlk9hXNrN-jaDAkJxet-15" value="Max lvl 20" style="text;html=1;strokeColor=none;fillColor=none;align=center;verticalAlign=middle;whiteSpace=wrap;rounded=0;" vertex="1" parent="1">
          <mxGeometry x="390" y="710" width="80" height="30" as="geometry" />
        </mxCell>
        <mxCell id="qmlk9hXNrN-jaDAkJxet-24" value="Start Season" style="rounded=0;whiteSpace=wrap;html=1;" vertex="1" parent="1">
          <mxGeometry x="560" y="450" width="120" height="60" as="geometry" />
        </mxCell>
      </root>
    </mxGraphModel>
  </diagram>
</mxfile>
